STARTFONT 2.3
FONT -FontForge-Fredoka One-Book-R-Normal--14-140-72-72-P-80-ISO10646-1
SIZE 14 72 72  2
FONTBOUNDINGBOX 19 18 -2 -4
COMMENT "Generated by fontforge, http://fontforge.sourceforge.net"
COMMENT "Copyright (c) 2011 Milena B Brandao (milenabbrandao@gmail.com), with Reserved Font Name "Fredoka""
STARTPROPERTIES 40
FOUNDRY "FontForge"
FAMILY_NAME "Fredoka One"
WEIGHT_NAME "Book"
SLANT "R"
SETWIDTH_NAME "Normal"
ADD_STYLE_NAME ""
PIXEL_SIZE 14
POINT_SIZE 140
RESOLUTION_X 72
RESOLUTION_Y 72
SPACING "P"
AVERAGE_WIDTH 80
CHARSET_REGISTRY "ISO10646"
CHARSET_ENCODING "1"
FONTNAME_REGISTRY ""
CHARSET_COLLECTIONS "ISO10646-1"
BITS_PER_PIXEL 2
FONT_NAME "FredokaOne-Regular"
FACE_NAME "Fredoka One"
COPYRIGHT "Copyright (c) 2011 Milena B Brandao (milenabbrandao@gmail.com), with Reserved Font Name "Fredoka""
FONT_VERSION "1.001"
FONT_ASCENT 11
FONT_DESCENT 3
UNDERLINE_POSITION -1
UNDERLINE_THICKNESS 1
X_HEIGHT 7
CAP_HEIGHT 10
RAW_ASCENT 800
RAW_DESCENT 200
NORM_SPACE 4
RELATIVE_WEIGHT 40
RELATIVE_SETWIDTH 50
SUPERSCRIPT_X 0
SUPERSCRIPT_Y 6
SUPERSCRIPT_SIZE 9
SUBSCRIPT_X 0
SUBSCRIPT_Y 1
SUBSCRIPT_SIZE 9
AVG_LOWERCASE_WIDTH 78
AVG_UPPERCASE_WIDTH 97
ENDPROPERTIES
CHARS 235
STARTCHAR space
ENCODING 32
SWIDTH 253 0
DWIDTH 4 0
BBX 1 1 0 0
BITMAP
00
ENDCHAR
STARTCHAR exclam
ENCODING 33
SWIDTH 267 0
DWIDTH 4 0
BBX 3 11 0 0
BITMAP
14
7C
7C
7C
7C
7C
7C
14
24
7C
7C
ENDCHAR
STARTCHAR quotedbl
ENCODING 34
SWIDTH 429 0
DWIDTH 6 0
BBX 6 6 0 5
BITMAP
1040
B5E0
BAE0
B5E0
75D0
2080
ENDCHAR
STARTCHAR numbersign
ENCODING 35
SWIDTH 749 0
DWIDTH 10 0
BBX 11 11 0 0
BITMAP
004040
03C3C0
03C3C0
2BEBE0
7FFFF4
1B9B90
1B5B40
BFFFE0
6FAF90
1E1E00
1D1D00
ENDCHAR
STARTCHAR dollar
ENCODING 36
SWIDTH 475 0
DWIDTH 7 0
BBX 7 12 0 -1
BITMAP
0600
0B00
2FD0
7EE0
7840
7F90
1BF0
20B4
BEF0
2FD0
0B40
0700
ENDCHAR
STARTCHAR percent
ENCODING 37
SWIDTH 838 0
DWIDTH 12 0
BBX 11 12 0 -1
BITMAP
0500C0
2F82C0
7AC340
71DA00
7FDD00
1E6800
0076F4
00A7AC
01CB1C
0287BC
0702F4
010000
ENDCHAR
STARTCHAR ampersand
ENCODING 38
SWIDTH 748 0
DWIDTH 10 0
BBX 10 11 0 0
BITMAP
06A400
1FFC00
2E3D00
2EBD00
1FF800
1FD000
7FE2D0
BEFBD0
BCBFD0
7FFFF0
1FFAF0
ENDCHAR
STARTCHAR quotesingle
ENCODING 39
SWIDTH 208 0
DWIDTH 3 0
BBX 3 6 0 5
BITMAP
10
B4
B8
B4
74
20
ENDCHAR
STARTCHAR parenleft
ENCODING 40
SWIDTH 384 0
DWIDTH 5 0
BBX 5 14 0 -3
BITMAP
0280
0FC0
2E00
3C00
7800
7800
B800
B800
7800
7800
3C00
2D00
1F80
07C0
ENDCHAR
STARTCHAR parenright
ENCODING 41
SWIDTH 384 0
DWIDTH 5 0
BBX 5 14 0 -3
BITMAP
A400
BD00
1F00
0B40
0780
0780
07C0
03C0
0780
0780
0B40
0F00
6E00
B800
ENDCHAR
STARTCHAR asterisk
ENCODING 42
SWIDTH 503 0
DWIDTH 7 0
BBX 7 7 0 4
BITMAP
0100
0B80
7FF4
BFF8
2FE0
3FF0
2DE0
ENDCHAR
STARTCHAR plus
ENCODING 43
SWIDTH 527 0
DWIDTH 7 0
BBX 7 7 0 0
BITMAP
0780
0780
7FF8
BFFC
1BD0
0780
0140
ENDCHAR
STARTCHAR comma
ENCODING 44
SWIDTH 238 0
DWIDTH 3 0
BBX 3 5 0 -2
BITMAP
64
BC
7C
38
B0
ENDCHAR
STARTCHAR hyphen
ENCODING 45
SWIDTH 433 0
DWIDTH 6 0
BBX 6 2 0 2
BITMAP
BFE0
BFE0
ENDCHAR
STARTCHAR period
ENCODING 46
SWIDTH 237 0
DWIDTH 3 0
BBX 3 3 0 0
BITMAP
64
BC
78
ENDCHAR
STARTCHAR slash
ENCODING 47
SWIDTH 526 0
DWIDTH 7 0
BBX 7 12 0 -1
BITMAP
0038
007C
00F8
01F0
03E0
07D0
0F80
1F40
3E00
7D00
B800
6400
ENDCHAR
STARTCHAR zero
ENCODING 48
SWIDTH 608 0
DWIDTH 9 0
BBX 8 12 0 -1
BITMAP
0150
1FF8
3FFD
7D3E
BC1F
BC1F
BC1F
BC2F
7E7E
2FFD
0BF4
0040
ENDCHAR
STARTCHAR one
ENCODING 49
SWIDTH 407 0
DWIDTH 6 0
BBX 5 10 0 0
BITMAP
07C0
2FC0
BFC0
BFC0
17C0
07C0
07C0
07C0
07C0
07C0
ENDCHAR
STARTCHAR two
ENCODING 50
SWIDTH 609 0
DWIDTH 9 0
BBX 9 11 0 0
BITMAP
014000
1FF800
3FFD00
BD3E00
B82F00
647E00
02FD00
1FF400
7FE500
BFFF40
7FFF00
ENDCHAR
STARTCHAR three
ENCODING 51
SWIDTH 608 0
DWIDTH 9 0
BBX 8 11 0 0
BITMAP
0150
1FF8
3FFE
3D2F
05BE
02FD
01FE
781F
BD6F
3FFE
1BF8
ENDCHAR
STARTCHAR four
ENCODING 52
SWIDTH 592 0
DWIDTH 8 0
BBX 8 11 0 0
BITMAP
0404
2E2E
2E2E
3E2E
7D2E
BD6E
BFFE
BFFE
002E
002E
002E
ENDCHAR
STARTCHAR five
ENCODING 53
SWIDTH 530 0
DWIDTH 7 0
BBX 7 12 0 -1
BITMAP
0550
3FF8
3FF8
7D50
7E90
BFF4
7EFC
00BC
79BC
BFF8
2FE0
0100
ENDCHAR
STARTCHAR six
ENCODING 54
SWIDTH 560 0
DWIDTH 8 0
BBX 8 11 0 0
BITMAP
0014
02FC
0FFC
2F90
7D00
BFE4
BFFC
BD7D
7D7D
3FFC
1FE4
ENDCHAR
STARTCHAR seven
ENCODING 55
SWIDTH 561 0
DWIDTH 8 0
BBX 8 11 0 0
BITMAP
1554
BFFE
BFFE
15BD
00F8
02F4
07E0
0BC0
0F40
1F40
1F00
ENDCHAR
STARTCHAR eight
ENCODING 56
SWIDTH 582 0
DWIDTH 8 0
BBX 8 11 0 0
BITMAP
0140
1FF4
3FFD
7D3D
3EBD
2FFC
7FBD
BC2E
BD7E
7FFD
1BF4
ENDCHAR
STARTCHAR nine
ENCODING 57
SWIDTH 560 0
DWIDTH 8 0
BBX 8 11 0 0
BITMAP
0140
2FF4
7FFC
BC3D
BDBD
3FFD
0ABD
00BC
1BF4
7FE0
7E40
ENDCHAR
STARTCHAR colon
ENCODING 58
SWIDTH 238 0
DWIDTH 3 0
BBX 3 7 0 0
BITMAP
78
BC
24
00
64
BC
78
ENDCHAR
STARTCHAR semicolon
ENCODING 59
SWIDTH 237 0
DWIDTH 3 0
BBX 3 9 0 -2
BITMAP
78
BC
24
00
64
BC
7C
38
B0
ENDCHAR
STARTCHAR less
ENCODING 60
SWIDTH 627 0
DWIDTH 9 0
BBX 9 10 0 0
BITMAP
000600
002F40
01FE00
1BF400
7F8000
BF4000
2FE000
06FD00
007F40
000B00
ENDCHAR
STARTCHAR equal
ENCODING 61
SWIDTH 478 0
DWIDTH 7 0
BBX 7 6 0 0
BITMAP
6AA0
BFF4
1550
6AA0
BFF4
1550
ENDCHAR
STARTCHAR greater
ENCODING 62
SWIDTH 627 0
DWIDTH 9 0
BBX 9 10 0 0
BITMAP
200000
BD0000
7FD000
0BF800
01BF40
007F40
06FD00
2FE000
BE4000
740000
ENDCHAR
STARTCHAR question
ENCODING 63
SWIDTH 512 0
DWIDTH 7 0
BBX 7 11 0 0
BITMAP
0540
3FE0
BEF8
B478
01B8
07F0
0B80
0100
0640
0B80
0B80
ENDCHAR
STARTCHAR at
ENCODING 64
SWIDTH 908 0
DWIDTH 13 0
BBX 13 12 0 -2
BITMAP
00150000
06FFE000
1F96FC00
3D299E00
74FF8B00
B2D78740
B2DB8740
B5FF4B40
786B5F00
2E07FD00
0FF59000
01A40000
ENDCHAR
STARTCHAR A
ENCODING 65
SWIDTH 765 0
DWIDTH 11 0
BBX 11 11 0 0
BITMAP
001000
00B400
01FC00
02FD00
07FF00
0BDF40
1F9FC0
2FFFD0
7FABF0
BC01F4
7800F4
ENDCHAR
STARTCHAR B
ENCODING 66
SWIDTH 646 0
DWIDTH 9 0
BBX 9 11 0 0
BITMAP
155000
7FFD00
7FFF00
7D5F40
7C6F40
7CFF00
7C6F40
7C0F80
7E6F80
7FFF00
7FF900
ENDCHAR
STARTCHAR C
ENCODING 67
SWIDTH 679 0
DWIDTH 10 0
BBX 9 11 0 0
BITMAP
005400
07FF40
1FFFC0
3F4640
7D0000
BC0000
BC0000
7D0000
3F9B80
1FFFC0
02FE40
ENDCHAR
STARTCHAR D
ENCODING 68
SWIDTH 704 0
DWIDTH 10 0
BBX 10 11 0 0
BITMAP
154000
7FF900
7FFF40
7D6FC0
7C07D0
7C03D0
7C03D0
7C0BD0
7EAF80
7FFE00
7FF800
ENDCHAR
STARTCHAR E
ENCODING 69
SWIDTH 638 0
DWIDTH 9 0
BBX 9 11 0 0
BITMAP
155500
7FFF40
7FFF40
7D5500
7D5400
7FFC00
7FFC00
7C0000
7E5500
7FFF80
7FFF40
ENDCHAR
STARTCHAR F
ENCODING 70
SWIDTH 637 0
DWIDTH 9 0
BBX 9 11 0 0
BITMAP
155500
7FFF40
7FFF40
7D5500
7D5400
7FFC00
7FFC00
7C0000
7C0000
7C0000
780000
ENDCHAR
STARTCHAR G
ENCODING 71
SWIDTH 714 0
DWIDTH 10 0
BBX 10 11 0 0
BITMAP
005400
07FF40
1FFFC0
3F4640
7D0500
BC3FD0
BC2FD0
7D03D0
3F9BD0
1FFFD0
02FF40
ENDCHAR
STARTCHAR H
ENCODING 72
SWIDTH 699 0
DWIDTH 10 0
BBX 10 11 0 0
BITMAP
100140
7C07C0
7C07D0
7C07D0
7D07D0
7FFFD0
7FFFD0
7C07D0
7C07D0
7C07D0
7803C0
ENDCHAR
STARTCHAR I
ENCODING 73
SWIDTH 257 0
DWIDTH 4 0
BBX 3 11 0 0
BITMAP
10
7C
7C
7C
7C
7C
7C
7C
7C
7C
78
ENDCHAR
STARTCHAR J
ENCODING 74
SWIDTH 549 0
DWIDTH 8 0
BBX 7 11 0 0
BITMAP
0010
007C
007C
007C
007C
007C
007C
107C
79FC
BFF4
2FD0
ENDCHAR
STARTCHAR K
ENCODING 75
SWIDTH 639 0
DWIDTH 9 0
BBX 9 11 0 0
BITMAP
100500
7C1F40
7C3F40
7CFD00
7EF400
7FD000
7FE000
7EF800
7CBE00
7C2F40
780B00
ENDCHAR
STARTCHAR L
ENCODING 76
SWIDTH 587 0
DWIDTH 8 0
BBX 8 11 0 0
BITMAP
1000
7C00
7C00
7C00
7C00
7C00
7C00
7C00
7C00
7FFE
7FFE
ENDCHAR
STARTCHAR M
ENCODING 77
SWIDTH 870 0
DWIDTH 12 0
BBX 12 11 0 0
BITMAP
100004
7D003E
7F00BE
7F82FE
7FD7FE
7EFFBE
7CFF3E
7C7D3E
7C143E
7C003E
78002D
ENDCHAR
STARTCHAR N
ENCODING 78
SWIDTH 720 0
DWIDTH 10 0
BBX 10 11 0 0
BITMAP
100040
7D03D0
7F03E0
7F83E0
7FD3E0
7EF7E0
7CFFE0
7C7FE0
7C1FE0
7C0BE0
7802D0
ENDCHAR
STARTCHAR O
ENCODING 79
SWIDTH 775 0
DWIDTH 11 0
BBX 11 11 0 0
BITMAP
005400
07FF40
1FFFD0
3F47F0
7D01F4
BC00F4
BC00F4
7D01F4
3F9BE0
1FFFD0
06FE00
ENDCHAR
STARTCHAR P
ENCODING 80
SWIDTH 632 0
DWIDTH 9 0
BBX 9 11 0 0
BITMAP
154000
7FF800
7FFF00
7D6F40
7C0F40
7D6F40
7FFF00
7FF800
7D0000
7C0000
780000
ENDCHAR
STARTCHAR Q
ENCODING 81
SWIDTH 830 0
DWIDTH 12 0
BBX 12 11 0 0
BITMAP
005400
07FF40
1FFFD0
3F47F0
7D01F4
BC00F4
BC00F4
7D01F4
3F9BF4
1FFFFD
06FE7C
ENDCHAR
STARTCHAR R
ENCODING 82
SWIDTH 631 0
DWIDTH 9 0
BBX 9 11 0 0
BITMAP
154000
7FF800
7FFF00
7D6F40
7C0F40
7D6F40
7FFF00
7FFE00
7D6F00
7C1F40
780B40
ENDCHAR
STARTCHAR S
ENCODING 83
SWIDTH 583 0
DWIDTH 8 0
BBX 8 11 0 0
BITMAP
0150
1FF8
7FFC
7C24
7E40
2FF8
06FE
103E
BD7E
7FFD
1FF4
ENDCHAR
STARTCHAR T
ENCODING 84
SWIDTH 731 0
DWIDTH 10 0
BBX 10 11 0 0
BITMAP
155540
BFFFF0
6AFEA0
00F400
00F400
00F400
00F400
00F400
00F400
00F400
00F400
ENDCHAR
STARTCHAR U
ENCODING 85
SWIDTH 726 0
DWIDTH 10 0
BBX 10 11 0 0
BITMAP
100040
7C02E0
7C03E0
7C03E0
7C03E0
7C03E0
7C03E0
7D07D0
3F5FC0
1FFF40
07FD00
ENDCHAR
STARTCHAR V
ENCODING 86
SWIDTH 783 0
DWIDTH 11 0
BBX 11 11 0 0
BITMAP
100010
B800B8
BC01F8
3E02F0
2F03E0
0F8BC0
0BCF80
03FF00
02FE00
00FC00
007400
ENDCHAR
STARTCHAR W
ENCODING 87
SWIDTH 999 0
DWIDTH 14 0
BBX 14 11 0 0
BITMAP
10000040
B80F02E0
BC2F43E0
7D3F87D0
3E7FCBC0
2FBFEF80
1FFAFF40
0FF5FF00
0BF0FD00
03E0BC00
02D07800
ENDCHAR
STARTCHAR X
ENCODING 88
SWIDTH 741 0
DWIDTH 10 0
BBX 10 11 0 0
BITMAP
100040
BC02F0
7E07E0
2F9FC0
0BFF00
02FD00
07FD00
0FFF40
3F4FD0
BD03F0
7801E0
ENDCHAR
STARTCHAR Y
ENCODING 89
SWIDTH 686 0
DWIDTH 10 0
BBX 10 11 0 0
BITMAP
100140
B807D0
BD0BC0
3F1F40
1FBE00
0BFC00
02F400
01F000
01F000
01F000
01F000
ENDCHAR
STARTCHAR Z
ENCODING 90
SWIDTH 643 0
DWIDTH 9 0
BBX 9 11 0 0
BITMAP
155500
BFFF40
BFFF40
00BE00
00FC00
02F400
0BD000
1F8000
3F5500
BFFF80
7FFF40
ENDCHAR
STARTCHAR bracketleft
ENCODING 91
SWIDTH 348 0
DWIDTH 5 0
BBX 5 14 0 -3
BITMAP
6A40
7F80
7D00
7800
7800
7800
7800
7800
7800
7800
7800
7800
7F40
7F80
ENDCHAR
STARTCHAR backslash
ENCODING 92
SWIDTH 528 0
DWIDTH 7 0
BBX 7 12 0 -1
BITMAP
7400
BC00
7D00
2E00
1F40
0B80
07D0
02E0
01F4
00F8
007C
0024
ENDCHAR
STARTCHAR bracketright
ENCODING 93
SWIDTH 348 0
DWIDTH 5 0
BBX 5 14 0 -3
BITMAP
AA00
BF40
1F40
0F40
0F40
0F40
0F40
0F40
0F40
0F40
0F40
0F40
BF40
BF40
ENDCHAR
STARTCHAR asciicircum
ENCODING 94
SWIDTH 526 0
DWIDTH 7 0
BBX 7 5 0 3
BITMAP
0240
0BD0
2FF4
7CB8
1010
ENDCHAR
STARTCHAR underscore
ENCODING 95
SWIDTH 826 0
DWIDTH 12 0
BBX 12 3 0 -4
BITMAP
6AAAA8
BFFFFD
155550
ENDCHAR
STARTCHAR grave
ENCODING 96
SWIDTH 482 0
DWIDTH 7 0
BBX 5 3 1 8
BITMAP
6400
BF40
1B40
ENDCHAR
STARTCHAR a
ENCODING 97
SWIDTH 596 0
DWIDTH 8 0
BBX 8 8 0 0
BITMAP
0104
1FFE
7FFE
BD7E
BC2E
7EBE
3FFE
0BAE
ENDCHAR
STARTCHAR b
ENCODING 98
SWIDTH 592 0
DWIDTH 8 0
BBX 8 11 0 0
BITMAP
6800
7C00
7C00
7C50
7FF8
7FFD
7D7E
7C2F
7EBE
7FFD
7AE4
ENDCHAR
STARTCHAR c
ENCODING 99
SWIDTH 517 0
DWIDTH 7 0
BBX 7 8 0 0
BITMAP
0150
1FF8
7FF8
BD20
BC00
7EB4
3FF8
0BE4
ENDCHAR
STARTCHAR d
ENCODING 100
SWIDTH 598 0
DWIDTH 8 0
BBX 8 11 0 0
BITMAP
0019
002E
002E
016E
1FFE
3FFE
7D7E
BC2E
7EBE
2FFE
0BAE
ENDCHAR
STARTCHAR e
ENCODING 101
SWIDTH 573 0
DWIDTH 8 0
BBX 8 9 0 -1
BITMAP
0190
1FF8
7FBD
BD3E
BFFD
7D14
3FFD
1BFC
0040
ENDCHAR
STARTCHAR f
ENCODING 102
SWIDTH 450 0
DWIDTH 6 0
BBX 6 11 0 0
BITMAP
0290
0FE0
1F90
2F50
BFF0
BFF0
2F00
2F00
2F00
1F00
1E00
ENDCHAR
STARTCHAR g
ENCODING 103
SWIDTH 585 0
DWIDTH 8 0
BBX 8 11 0 -3
BITMAP
0104
1FFE
7FFE
BC7E
BC3E
7EBE
2FFE
0AAE
197D
3FFC
1FE4
ENDCHAR
STARTCHAR h
ENCODING 104
SWIDTH 605 0
DWIDTH 8 0
BBX 8 11 0 0
BITMAP
6800
7C00
7C00
7C50
7FF8
7FFD
7D2E
7C2F
7C2F
7C2F
781E
ENDCHAR
STARTCHAR i
ENCODING 105
SWIDTH 255 0
DWIDTH 4 0
BBX 3 11 0 0
BITMAP
68
7C
24
14
7C
7C
7C
7C
7C
7C
78
ENDCHAR
STARTCHAR j
ENCODING 106
SWIDTH 252 0
DWIDTH 4 0
BBX 5 14 -2 -3
BITMAP
0680
07C0
0240
0140
07C0
07C0
07C0
07C0
07C0
07C0
07C0
1BC0
BF40
BD00
ENDCHAR
STARTCHAR k
ENCODING 107
SWIDTH 536 0
DWIDTH 8 0
BBX 8 11 0 0
BITMAP
6800
7C00
7C00
7C00
7CB4
7EF8
7FE0
7FD0
7FF4
7DFD
7878
ENDCHAR
STARTCHAR l
ENCODING 108
SWIDTH 327 0
DWIDTH 5 0
BBX 5 11 0 0
BITMAP
6800
7C00
7C00
7C00
7C00
7C00
7C00
7C00
7D00
7F40
2F40
ENDCHAR
STARTCHAR m
ENCODING 109
SWIDTH 851 0
DWIDTH 12 0
BBX 12 8 0 0
BITMAP
145050
7FFBF8
7FFFFC
7DBD7D
7C7D3D
7C7D3D
7C7D3D
783C3D
ENDCHAR
STARTCHAR n
ENCODING 110
SWIDTH 606 0
DWIDTH 8 0
BBX 8 8 0 0
BITMAP
1450
7FF8
7FFD
7D2E
7C2F
7C2F
7C2F
781E
ENDCHAR
STARTCHAR o
ENCODING 111
SWIDTH 600 0
DWIDTH 8 0
BBX 8 8 0 0
BITMAP
0190
1FF8
7FFE
BD2F
BC1F
7E7E
3FFD
0BF4
ENDCHAR
STARTCHAR p
ENCODING 112
SWIDTH 582 0
DWIDTH 8 0
BBX 8 11 0 -3
BITMAP
1440
7FF8
7FFD
7D3E
7C2E
7EBE
7FFC
7EA0
7C00
7C00
7C00
ENDCHAR
STARTCHAR q
ENCODING 113
SWIDTH 582 0
DWIDTH 8 0
BBX 8 11 0 -3
BITMAP
0104
1FFE
7FFE
BD7E
BC3E
7EBE
2FFE
0ABE
002E
002E
002E
ENDCHAR
STARTCHAR r
ENCODING 114
SWIDTH 457 0
DWIDTH 6 0
BBX 6 8 0 0
BITMAP
1450
7FF0
7FF0
7D00
7C00
7C00
7C00
7800
ENDCHAR
STARTCHAR s
ENCODING 115
SWIDTH 489 0
DWIDTH 7 0
BBX 7 8 0 0
BITMAP
0540
3FF0
7DA0
7E90
2FF4
15F4
BFF4
6FE0
ENDCHAR
STARTCHAR t
ENCODING 116
SWIDTH 449 0
DWIDTH 6 0
BBX 6 10 0 0
BITMAP
1E00
1F00
2F50
BFF0
BFF0
2F00
2F00
1F40
1FE0
07D0
ENDCHAR
STARTCHAR u
ENCODING 117
SWIDTH 606 0
DWIDTH 8 0
BBX 8 8 0 0
BITMAP
1405
7C1F
7C2F
7C2F
7C2F
7EBF
2FFF
0BAE
ENDCHAR
STARTCHAR v
ENCODING 118
SWIDTH 638 0
DWIDTH 9 0
BBX 9 8 0 0
BITMAP
100100
B80B80
7D1F40
3E3E00
1FBD00
0BF800
07F000
02D000
ENDCHAR
STARTCHAR w
ENCODING 119
SWIDTH 793 0
DWIDTH 11 0
BBX 11 8 0 0
BITMAP
101010
B8B8B8
BCFCF8
3EFEF4
2FFFE0
1FEFD0
0FCBC0
074740
ENDCHAR
STARTCHAR x
ENCODING 120
SWIDTH 567 0
DWIDTH 8 0
BBX 8 8 0 0
BITMAP
1004
B83E
7EFD
2FF4
0FF0
2FF8
BEBE
742D
ENDCHAR
STARTCHAR y
ENCODING 121
SWIDTH 604 0
DWIDTH 8 0
BBX 8 12 0 -4
BITMAP
1005
B81F
7D2F
2F7D
1FFC
0BF8
03F0
03E0
07D0
0B80
0F40
0100
ENDCHAR
STARTCHAR z
ENCODING 122
SWIDTH 586 0
DWIDTH 8 0
BBX 8 8 0 0
BITMAP
1554
7FFE
7FFD
02F4
0BD0
2F95
BFFE
7FFE
ENDCHAR
STARTCHAR braceleft
ENCODING 123
SWIDTH 381 0
DWIDTH 5 0
BBX 5 14 0 -3
BITMAP
0680
0FC0
0F00
1F00
1F00
1E00
BD00
BD00
1E00
1E00
1E00
1F00
0F80
07C0
ENDCHAR
STARTCHAR bar
ENCODING 124
SWIDTH 217 0
DWIDTH 3 0
BBX 3 15 0 -4
BITMAP
64
74
74
74
74
74
74
74
74
74
74
74
74
74
10
ENDCHAR
STARTCHAR braceright
ENCODING 125
SWIDTH 381 0
DWIDTH 5 0
BBX 5 14 0 -3
BITMAP
A400
BD00
2D00
2E00
2E00
1E00
0F80
0FC0
1E00
2D00
2D00
2D00
BD00
B800
ENDCHAR
STARTCHAR asciitilde
ENCODING 126
SWIDTH 651 0
DWIDTH 9 0
BBX 8 4 0 2
BITMAP
0104
2FEE
7FFE
24A8
ENDCHAR
STARTCHAR exclamdown
ENCODING 161
SWIDTH 268 0
DWIDTH 4 0
BBX 3 10 0 -3
BITMAP
7C
7C
14
14
7C
7C
7C
7C
7C
7C
ENDCHAR
STARTCHAR cent
ENCODING 162
SWIDTH 434 0
DWIDTH 6 0
BBX 6 11 0 -1
BITMAP
0100
0740
0740
1FD0
7FE0
B840
B840
7FE0
1FD0
0740
0740
ENDCHAR
STARTCHAR sterling
ENCODING 163
SWIDTH 675 0
DWIDTH 9 0
BBX 10 11 0 0
BITMAP
001000
06FE40
0FFFC0
1F4640
2E0000
BFF000
BFF000
0F4000
1F5540
2FFFD0
2FFFC0
ENDCHAR
STARTCHAR currency
ENCODING 164
SWIDTH 677 0
DWIDTH 9 0
BBX 9 11 0 0
BITMAP
600180
7A5BC0
2FFF40
3FAF40
7C0B80
780780
7C0780
3E6F40
2FFF40
7EABC0
700280
ENDCHAR
STARTCHAR yen
ENCODING 165
SWIDTH 677 0
DWIDTH 9 0
BBX 9 11 0 0
BITMAP
100100
B807C0
BD0BC0
3F1F40
1FBE00
0BFC00
1FFF00
06F500
1AFA00
1FFE00
01E000
ENDCHAR
STARTCHAR brokenbar
ENCODING 166
SWIDTH 215 0
DWIDTH 3 0
BBX 3 14 0 -3
BITMAP
64
74
74
74
74
74
10
10
74
74
74
74
74
74
ENDCHAR
STARTCHAR section
ENCODING 167
SWIDTH 560 0
DWIDTH 8 0
BBX 8 14 0 -3
BITMAP
0690
2FF8
7EB8
7C00
3FA0
3FFC
7DBD
7D3D
3FFC
1BFC
107D
787D
7FFC
1FE4
ENDCHAR
STARTCHAR dieresis
ENCODING 168
SWIDTH 489 0
DWIDTH 7 0
BBX 7 3 0 8
BITMAP
6864
7CB8
2864
ENDCHAR
STARTCHAR copyright
ENCODING 169
SWIDTH 711 0
DWIDTH 10 0
BBX 10 10 0 1
BITMAP
015400
1FAF40
34A5C0
63F8D0
AB00A0
AB00A0
67A890
75A5C0
1EAB40
06A900
ENDCHAR
STARTCHAR ordfeminine
ENCODING 170
SWIDTH 445 0
DWIDTH 6 0
BBX 6 6 0 4
BITMAP
1EE0
7FE0
B5E0
7AE0
2FE0
0440
ENDCHAR
STARTCHAR guillemotleft
ENCODING 171
SWIDTH 668 0
DWIDTH 9 0
BBX 9 8 0 0
BITMAP
010000
0787C0
1F9F80
7E7E00
BCBD00
3F2F40
0F8BC0
024280
ENDCHAR
STARTCHAR logicalnot
ENCODING 172
SWIDTH 526 0
DWIDTH 7 0
BBX 7 5 0 1
BITMAP
BFFC
BFFC
156C
002C
0004
ENDCHAR
STARTCHAR registered
ENCODING 174
SWIDTH 711 0
DWIDTH 10 0
BBX 10 10 0 1
BITMAP
015400
1FAF40
35A5C0
63FCD0
A39CA0
A3F8A0
63AC90
7549C0
1EAB40
06A900
ENDCHAR
STARTCHAR degree
ENCODING 176
SWIDTH 407 0
DWIDTH 6 0
BBX 6 6 0 5
BITMAP
1A00
7FC0
B1D0
B6D0
2F80
0400
ENDCHAR
STARTCHAR plusminus
ENCODING 177
SWIDTH 505 0
DWIDTH 7 0
BBX 7 8 0 0
BITMAP
0640
0B80
BFF8
BFF8
0B80
0140
7FF4
7FF4
ENDCHAR
STARTCHAR twosuperior
ENCODING 178
SWIDTH 455 0
DWIDTH 6 0
BBX 6 8 0 3
BITMAP
0500
3FD0
BEE0
B5E0
17E0
2F80
BFF0
7FF0
ENDCHAR
STARTCHAR threesuperior
ENCODING 179
SWIDTH 457 0
DWIDTH 6 0
BBX 6 8 0 3
BITMAP
0540
2FD0
7AE0
16E0
0BE0
B4F0
7FE0
2F80
ENDCHAR
STARTCHAR acute
ENCODING 180
SWIDTH 605 0
DWIDTH 8 0
BBX 4 3 2 8
BITMAP
1A
BF
B9
ENDCHAR
STARTCHAR mu
ENCODING 181
SWIDTH 601 0
DWIDTH 8 0
BBX 8 11 0 -3
BITMAP
1404
7C2E
7C2F
7C2F
7C2F
7EBF
7FFF
7E9E
7C00
7C00
7C00
ENDCHAR
STARTCHAR paragraph
ENCODING 182
SWIDTH 614 0
DWIDTH 9 0
BBX 8 13 0 -4
BITMAP
1AA9
7FFE
BF8E
BF8E
7F8E
078E
038E
038E
038E
038E
038E
038E
0004
ENDCHAR
STARTCHAR periodcentered
ENCODING 183
SWIDTH 237 0
DWIDTH 3 0
BBX 3 3 0 3
BITMAP
64
BC
78
ENDCHAR
STARTCHAR cedilla
ENCODING 184
SWIDTH 559 0
DWIDTH 8 0
BBX 3 4 2 -3
BITMAP
10
7C
6C
64
ENDCHAR
STARTCHAR onesuperior
ENCODING 185
SWIDTH 321 0
DWIDTH 5 0
BBX 4 8 0 3
BITMAP
05
1F
7F
BF
0F
0F
0F
0E
ENDCHAR
STARTCHAR ordmasculine
ENCODING 186
SWIDTH 439 0
DWIDTH 6 0
BBX 6 6 0 4
BITMAP
1B40
7FD0
B4E0
B9E0
3FD0
0500
ENDCHAR
STARTCHAR guillemotright
ENCODING 187
SWIDTH 669 0
DWIDTH 9 0
BBX 9 8 0 0
BITMAP
101000
B87800
7E7E00
1F9F80
0BCBC0
2F6F40
BD7D00
747400
ENDCHAR
STARTCHAR onequarter
ENCODING 188
SWIDTH 786 0
DWIDTH 11 0
BBX 9 12 1 -1
BITMAP
240900
B81C00
F83400
38B000
38D000
3A9980
036DC0
0A3AC0
1D3FC0
2816C0
7401C0
100000
ENDCHAR
STARTCHAR onehalf
ENCODING 189
SWIDTH 804 0
DWIDTH 11 0
BBX 10 12 1 -1
BITMAP
240900
B81C00
F83400
38B000
38D000
3A9F40
037FC0
0A36C0
1D0B80
283F90
743FD0
100000
ENDCHAR
STARTCHAR threequarters
ENCODING 190
SWIDTH 842 0
DWIDTH 12 0
BBX 11 12 0 -1
BITMAP
1A40C0
3FC280
16C740
0BCA00
7ADC00
2FAAA8
0473AC
00E7AC
01C7FC
03416C
070028
010000
ENDCHAR
STARTCHAR questiondown
ENCODING 191
SWIDTH 511 0
DWIDTH 7 0
BBX 7 11 0 -3
BITMAP
0140
0BC0
0BC0
0100
0640
1F80
7F40
B810
B9BC
7FF8
1FE0
ENDCHAR
STARTCHAR Agrave
ENCODING 192
SWIDTH 765 0
DWIDTH 11 0
BBX 11 14 0 0
BITMAP
014000
03F800
02FC00
001400
00B400
01FC00
02FD00
07FF00
0BDF40
1F9FC0
2FFFD0
7FABF0
BC01F4
7800F4
ENDCHAR
STARTCHAR Aacute
ENCODING 193
SWIDTH 765 0
DWIDTH 11 0
BBX 11 14 0 0
BITMAP
001500
00FE00
00F900
005000
00B400
01FC00
02FD00
07FF00
0BDF40
1F9FC0
2FFFD0
7FABF0
BC01F4
7800F4
ENDCHAR
STARTCHAR Acircumflex
ENCODING 194
SWIDTH 765 0
DWIDTH 11 0
BBX 11 14 0 0
BITMAP
006400
07FF00
039E00
001000
00B400
01FC00
02FD00
07FF00
0BDF40
1F9FC0
2FFFD0
7FABF0
BC01F4
7800F4
ENDCHAR
STARTCHAR Atilde
ENCODING 195
SWIDTH 765 0
DWIDTH 11 0
BBX 11 14 0 0
BITMAP
019500
07FF00
066D00
001000
00B400
01FC00
02FD00
07FF00
0BDF40
1F9FC0
2FFFD0
7FABF0
BC01F4
7800F4
ENDCHAR
STARTCHAR Adieresis
ENCODING 196
SWIDTH 765 0
DWIDTH 11 0
BBX 11 14 0 0
BITMAP
064600
0B8F80
074B40
001000
00B400
01FC00
02FD00
07FF00
0BDF40
1F9FC0
2FFFD0
7FABF0
BC01F4
7800F4
ENDCHAR
STARTCHAR Aring
ENCODING 197
SWIDTH 765 0
DWIDTH 11 0
BBX 11 13 0 0
BITMAP
00A400
019C00
019C00
00F800
01FC00
02FD00
07FF00
0BDF40
1F9FC0
2FFFD0
7FABF0
BC01F4
7800F4
ENDCHAR
STARTCHAR AE
ENCODING 198
SWIDTH 1148 0
DWIDTH 16 0
BBX 16 11 0 0
BITMAP
00005554
0002FFFE
000BFFFE
002FF554
00BFF950
01F9FFF0
07F5FFF0
1FFFF400
7FFFF955
FD01FFFE
B400BFFD
ENDCHAR
STARTCHAR Ccedilla
ENCODING 199
SWIDTH 679 0
DWIDTH 10 0
BBX 9 14 0 -3
BITMAP
005400
07FF40
1FFFC0
3F4640
7D0000
BC0000
BC0000
7D0000
3F9B80
1FFFC0
02FE40
00B800
006C00
006400
ENDCHAR
STARTCHAR Egrave
ENCODING 200
SWIDTH 638 0
DWIDTH 9 0
BBX 9 14 0 0
BITMAP
010000
07F400
02F800
156500
7FFF40
7FFF40
7D5500
7D5400
7FFC00
7FFC00
7C0000
7E5500
7FFF80
7FFF40
ENDCHAR
STARTCHAR Eacute
ENCODING 201
SWIDTH 638 0
DWIDTH 9 0
BBX 9 14 0 0
BITMAP
001400
03FC00
03E400
155500
7FFF40
7FFF40
7D5500
7D5400
7FFC00
7FFC00
7C0000
7E5500
7FFF80
7FFF40
ENDCHAR
STARTCHAR Ecircumflex
ENCODING 202
SWIDTH 638 0
DWIDTH 9 0
BBX 9 14 0 0
BITMAP
019000
0FFD00
0E6C00
155500
7FFF40
7FFF40
7D5500
7D5400
7FFC00
7FFC00
7C0000
7E5500
7FFF80
7FFF40
ENDCHAR
STARTCHAR Edieresis
ENCODING 203
SWIDTH 638 0
DWIDTH 9 0
BBX 9 14 0 0
BITMAP
091900
2F2E00
1E1D00
155500
7FFF40
7FFF40
7D5500
7D5400
7FFC00
7FFC00
7C0000
7E5500
7FFF80
7FFF40
ENDCHAR
STARTCHAR Igrave
ENCODING 204
SWIDTH 267 0
DWIDTH 4 0
BBX 5 14 -1 0
BITMAP
1000
BE40
6F40
0500
1F00
1F00
1F00
1F00
1F00
1F00
1F00
1F00
1F00
1F00
ENDCHAR
STARTCHAR Iacute
ENCODING 205
SWIDTH 269 0
DWIDTH 4 0
BBX 5 14 0 0
BITMAP
0600
7F40
7E00
1000
7C00
7C00
7C00
7C00
7C00
7C00
7C00
7C00
7C00
7C00
ENDCHAR
STARTCHAR Icircumflex
ENCODING 206
SWIDTH 270 0
DWIDTH 4 0
BBX 6 14 -1 0
BITMAP
1900
BFE0
BAD0
0400
1F00
1F00
1F00
1F00
1F00
1F00
1F00
1F00
1F00
1F00
ENDCHAR
STARTCHAR Idieresis
ENCODING 207
SWIDTH 268 0
DWIDTH 4 0
BBX 7 14 -2 0
BITMAP
2824
7D7C
2878
0100
07C0
07C0
07C0
07C0
07C0
07C0
07C0
07C0
07C0
07C0
ENDCHAR
STARTCHAR Eth
ENCODING 208
SWIDTH 775 0
DWIDTH 11 0
BBX 11 11 0 0
BITMAP
055000
1FFE40
1FFFD0
1F5BF0
2F01F4
BFC0F4
7F80F4
1F02F4
1FABE0
1FFF80
1FFD00
ENDCHAR
STARTCHAR Ntilde
ENCODING 209
SWIDTH 720 0
DWIDTH 10 0
BBX 10 14 0 0
BITMAP
018500
0BFE00
066800
100040
7D03D0
7F03E0
7F83E0
7FD3E0
7EF7E0
7CFFE0
7C7FE0
7C1FE0
7C0BE0
7802D0
ENDCHAR
STARTCHAR Ograve
ENCODING 210
SWIDTH 775 0
DWIDTH 11 0
BBX 11 14 0 0
BITMAP
014000
03F800
01FC00
006800
07FF40
1FFFD0
3F47F0
7D01F4
BC00F4
BC00F4
7D01F4
3F9BE0
1FFFD0
06FE00
ENDCHAR
STARTCHAR Oacute
ENCODING 211
SWIDTH 775 0
DWIDTH 11 0
BBX 11 14 0 0
BITMAP
001900
01FE00
00F900
005400
07FF40
1FFFD0
3F47F0
7D01F4
BC00F4
BC00F4
7D01F4
3F9BE0
1FFFD0
06FE00
ENDCHAR
STARTCHAR Ocircumflex
ENCODING 212
SWIDTH 775 0
DWIDTH 11 0
BBX 11 14 0 0
BITMAP
006400
07FF00
039B00
005400
07FF40
1FFFD0
3F47F0
7D01F4
BC00F4
BC00F4
7D01F4
3F9BE0
1FFFD0
06FE00
ENDCHAR
STARTCHAR Otilde
ENCODING 213
SWIDTH 775 0
DWIDTH 11 0
BBX 11 14 0 0
BITMAP
009200
03FF40
026E00
005400
07FF40
1FFFD0
3F47F0
7D01F4
BC00F4
BC00F4
7D01F4
3F9BE0
1FFFD0
06FE00
ENDCHAR
STARTCHAR Odieresis
ENCODING 214
SWIDTH 775 0
DWIDTH 11 0
BBX 11 14 0 0
BITMAP
064600
0B8F40
074B40
005400
07FF40
1FFFD0
3F47F0
7D01F4
BC00F4
BC00F4
7D01F4
3F9BE0
1FFFD0
06FE00
ENDCHAR
STARTCHAR multiply
ENCODING 215
SWIDTH 521 0
DWIDTH 7 0
BBX 7 7 0 0
BITMAP
7474
BEF8
2FF0
1FD0
7FF4
BCBC
1014
ENDCHAR
STARTCHAR Oslash
ENCODING 216
SWIDTH 775 0
DWIDTH 11 0
BBX 11 12 0 -1
BITMAP
005780
07FFC0
1FFFD0
3F6FF0
7D3EF4
BCBCF4
BCF8F4
7EF1F4
3FEBE0
1FFFD0
0FFE00
060000
ENDCHAR
STARTCHAR Ugrave
ENCODING 217
SWIDTH 726 0
DWIDTH 10 0
BBX 10 14 0 0
BITMAP
010000
0BE000
06F400
101040
7C02E0
7C03E0
7C03E0
7C03E0
7C03E0
7C03E0
7D07D0
3F5FC0
1FFF40
07FD00
ENDCHAR
STARTCHAR Uacute
ENCODING 218
SWIDTH 726 0
DWIDTH 10 0
BBX 10 14 0 0
BITMAP
001900
01FE00
00F900
100040
7C02E0
7C03E0
7C03E0
7C03E0
7C03E0
7C03E0
7D07D0
3F5FC0
1FFF40
07FD00
ENDCHAR
STARTCHAR Ucircumflex
ENCODING 219
SWIDTH 726 0
DWIDTH 10 0
BBX 10 14 0 0
BITMAP
006400
07FF00
079E00
100040
7C02E0
7C03E0
7C03E0
7C03E0
7C03E0
7C03E0
7D07D0
3F5FC0
1FFF40
07FD00
ENDCHAR
STARTCHAR Udieresis
ENCODING 220
SWIDTH 726 0
DWIDTH 10 0
BBX 10 14 0 0
BITMAP
060A00
0F5F40
0B4A00
100040
7C02E0
7C03E0
7C03E0
7C03E0
7C03E0
7C03E0
7D07D0
3F5FC0
1FFF40
07FD00
ENDCHAR
STARTCHAR Yacute
ENCODING 221
SWIDTH 686 0
DWIDTH 10 0
BBX 10 14 0 0
BITMAP
001400
02FC00
02E400
100140
B807D0
BD0BC0
3F1F40
1FBE00
0BFC00
02F400
01F000
01F000
01F000
01F000
ENDCHAR
STARTCHAR Thorn
ENCODING 222
SWIDTH 634 0
DWIDTH 9 0
BBX 9 11 0 0
BITMAP
100000
7C0000
7FE400
7FFE00
7EBF40
7C0F40
7C1F40
7FFF00
7FFD00
7E9000
780000
ENDCHAR
STARTCHAR germandbls
ENCODING 223
SWIDTH 633 0
DWIDTH 9 0
BBX 9 12 0 -1
BITMAP
059000
2FFC00
7EBD00
7C7C00
7CF400
7CF400
7CBE00
7C1F40
7C5F40
7DFF40
7DFE00
140000
ENDCHAR
STARTCHAR agrave
ENCODING 224
SWIDTH 596 0
DWIDTH 8 0
BBX 8 11 0 0
BITMAP
0640
0BF4
01B0
0104
1FFE
7FFE
BD7E
BC2E
7EBE
3FFE
0BAE
ENDCHAR
STARTCHAR aacute
ENCODING 225
SWIDTH 596 0
DWIDTH 8 0
BBX 8 11 0 0
BITMAP
0064
07F8
0790
0104
1FFE
7FFE
BD7E
BC2E
7EBE
3FFE
0BAE
ENDCHAR
STARTCHAR acircumflex
ENCODING 226
SWIDTH 596 0
DWIDTH 8 0
BBX 8 11 0 0
BITMAP
06A4
0FFD
0A68
0104
1FFE
7FFE
BD7E
BC2E
7EBE
3FFE
0BAE
ENDCHAR
STARTCHAR atilde
ENCODING 227
SWIDTH 596 0
DWIDTH 8 0
BBX 8 11 0 0
BITMAP
0698
0FFD
0964
0104
1FFE
7FFE
BD7E
BC2E
7EBE
3FFE
0BAE
ENDCHAR
STARTCHAR adieresis
ENCODING 228
SWIDTH 596 0
DWIDTH 8 0
BBX 8 11 0 0
BITMAP
1A19
2F2E
1919
0104
1FFE
7FFE
BD7E
BC2E
7EBE
3FFE
0BAE
ENDCHAR
STARTCHAR aring
ENCODING 229
SWIDTH 596 0
DWIDTH 8 0
BBX 8 11 0 0
BITMAP
0050
0260
02A0
0144
1FFE
7FFE
BD7E
BC2E
7EBE
3FFE
0BAE
ENDCHAR
STARTCHAR ae
ENCODING 230
SWIDTH 910 0
DWIDTH 13 0
BBX 13 8 0 0
BITMAP
05405400
3FFBFE00
7FFFFF40
247F5F40
2FBFFF00
B97F4500
BEBFFF00
3FD6FE00
ENDCHAR
STARTCHAR ccedilla
ENCODING 231
SWIDTH 524 0
DWIDTH 7 0
BBX 7 11 0 -3
BITMAP
0150
1FF8
7FF8
BD10
BC00
7EB4
3FFC
0BF4
03D0
02D0
0280
ENDCHAR
STARTCHAR egrave
ENCODING 232
SWIDTH 573 0
DWIDTH 8 0
BBX 8 12 0 -1
BITMAP
0A40
0FF0
01A0
0190
1FF8
7FBD
BD3E
BFFD
7D14
3FFD
1BFC
0040
ENDCHAR
STARTCHAR eacute
ENCODING 233
SWIDTH 573 0
DWIDTH 8 0
BBX 8 12 0 -1
BITMAP
0160
0BF4
0790
0190
1FF8
7FBD
BD3E
BFFD
7D14
3FFD
1BFC
0040
ENDCHAR
STARTCHAR ecircumflex
ENCODING 234
SWIDTH 573 0
DWIDTH 8 0
BBX 8 12 0 -1
BITMAP
0690
2FFC
1964
0190
1FF8
7FBD
BD3E
BFFD
7D14
3FFD
1BFC
0040
ENDCHAR
STARTCHAR edieresis
ENCODING 235
SWIDTH 573 0
DWIDTH 8 0
BBX 8 12 0 -1
BITMAP
2828
3D7D
2828
0190
1FF8
7FBD
BD3E
BFFD
7D14
3FFD
1BFC
0040
ENDCHAR
STARTCHAR igrave
ENCODING 236
SWIDTH 255 0
DWIDTH 4 0
BBX 5 11 -1 0
BITMAP
6400
BF40
1B40
0500
1F00
1F00
1F00
1F00
1F00
1F00
1E00
ENDCHAR
STARTCHAR iacute
ENCODING 237
SWIDTH 255 0
DWIDTH 4 0
BBX 5 11 0 0
BITMAP
1A00
BF40
7900
1400
7C00
7C00
7C00
7C00
7C00
7C00
7800
ENDCHAR
STARTCHAR icircumflex
ENCODING 238
SWIDTH 255 0
DWIDTH 4 0
BBX 6 11 -1 0
BITMAP
1A40
FFE0
6590
0500
1F00
1F00
1F00
1F00
1F00
1F00
1E00
ENDCHAR
STARTCHAR idieresis
ENCODING 239
SWIDTH 255 0
DWIDTH 4 0
BBX 7 11 -2 0
BITMAP
2868
7CBC
2864
0140
07C0
07C0
07C0
07C0
07C0
07C0
0780
ENDCHAR
STARTCHAR eth
ENCODING 240
SWIDTH 585 0
DWIDTH 8 0
BBX 8 11 0 0
BITMAP
06D0
0BD0
07F4
057C
1BFD
3FFE
BD7E
B82E
7D7E
3FFC
0BE4
ENDCHAR
STARTCHAR ntilde
ENCODING 241
SWIDTH 606 0
DWIDTH 8 0
BBX 8 11 0 0
BITMAP
0A58
1FFC
08A0
1450
7FF8
7FFD
7D2E
7C2F
7C2F
7C2F
781E
ENDCHAR
STARTCHAR ograve
ENCODING 242
SWIDTH 600 0
DWIDTH 8 0
BBX 8 11 0 0
BITMAP
0640
0BF0
01B0
0190
1FF8
7FFE
BD2F
BC1F
7E7E
3FFD
0BF4
ENDCHAR
STARTCHAR oacute
ENCODING 243
SWIDTH 600 0
DWIDTH 8 0
BBX 8 11 0 0
BITMAP
0064
07F8
0790
0190
1FF8
7FFE
BD2F
BC1F
7E7E
3FFD
0BF4
ENDCHAR
STARTCHAR ocircumflex
ENCODING 244
SWIDTH 600 0
DWIDTH 8 0
BBX 8 11 0 0
BITMAP
0690
1FFC
0968
0190
1FF8
7FFE
BD2F
BC1F
7E7E
3FFD
0BF4
ENDCHAR
STARTCHAR otilde
ENCODING 245
SWIDTH 600 0
DWIDTH 8 0
BBX 8 11 0 0
BITMAP
0A58
1FFC
08A0
0190
1FF8
7FFE
BD2F
BC1F
7E7E
3FFD
0BF4
ENDCHAR
STARTCHAR odieresis
ENCODING 246
SWIDTH 600 0
DWIDTH 8 0
BBX 8 11 0 0
BITMAP
2928
3D7D
1828
0190
1FF8
7FFE
BD2F
BC1F
7E7E
3FFD
0BF4
ENDCHAR
STARTCHAR divide
ENCODING 247
SWIDTH 503 0
DWIDTH 7 0
BBX 7 8 0 0
BITMAP
0640
0B80
0640
6FF4
BFF8
0540
0B80
0740
ENDCHAR
STARTCHAR oslash
ENCODING 248
SWIDTH 600 0
DWIDTH 8 0
BBX 8 12 0 -2
BITMAP
0014
002E
01BD
1FFC
7FFE
BD2F
BC1F
7E7E
3FFD
2FF4
3D00
3C00
ENDCHAR
STARTCHAR ugrave
ENCODING 249
SWIDTH 606 0
DWIDTH 8 0
BBX 8 11 0 0
BITMAP
0640
0FF0
01B0
1405
7C1F
7C2F
7C2F
7C2F
7EBF
2FFF
0BAE
ENDCHAR
STARTCHAR uacute
ENCODING 250
SWIDTH 606 0
DWIDTH 8 0
BBX 8 11 0 0
BITMAP
0064
07F8
0390
1405
7C1F
7C2F
7C2F
7C2F
7EBF
2FFF
0BAE
ENDCHAR
STARTCHAR ucircumflex
ENCODING 251
SWIDTH 606 0
DWIDTH 8 0
BBX 8 11 0 0
BITMAP
0690
1FFC
0A68
1405
7C1F
7C2F
7C2F
7C2F
7EBF
2FFF
0BAE
ENDCHAR
STARTCHAR udieresis
ENCODING 252
SWIDTH 606 0
DWIDTH 8 0
BBX 8 11 0 0
BITMAP
2928
3E3D
1928
1405
7C1F
7C2F
7C2F
7C2F
7EBF
2FFF
0BAE
ENDCHAR
STARTCHAR yacute
ENCODING 253
SWIDTH 604 0
DWIDTH 8 0
BBX 8 15 0 -4
BITMAP
0064
07F8
0390
1005
B81F
7D2F
2F7D
1FFC
0BF8
03F0
03E0
07D0
0B80
0F40
0100
ENDCHAR
STARTCHAR thorn
ENCODING 254
SWIDTH 580 0
DWIDTH 8 0
BBX 8 14 0 -3
BITMAP
7800
7C00
7C00
7C40
7FF4
7FFD
7D7E
7C2E
7EBE
7FFC
7EE0
7800
7800
7800
ENDCHAR
STARTCHAR ydieresis
ENCODING 255
SWIDTH 604 0
DWIDTH 8 0
BBX 8 15 0 -4
BITMAP
1929
2E3D
1918
1005
B81F
7D2F
2F7D
1FFC
0BF8
03F0
03E0
07D0
0B80
0F40
0100
ENDCHAR
STARTCHAR dotlessi
ENCODING 305
SWIDTH 255 0
DWIDTH 4 0
BBX 3 8 0 0
BITMAP
14
7C
7C
7C
7C
7C
7C
78
ENDCHAR
STARTCHAR Lslash
ENCODING 321
SWIDTH 687 0
DWIDTH 10 0
BBX 9 11 0 0
BITMAP
010000
0F4000
0F4000
0F4000
0FF400
6FF400
BF8000
0F4000
0F4000
0FFFC0
0BFFC0
ENDCHAR
STARTCHAR lslash
ENCODING 322
SWIDTH 468 0
DWIDTH 7 0
BBX 7 11 0 0
BITMAP
0A00
0F40
0F40
0F40
0FB0
7FF4
BF40
1F40
0F80
0FE0
07E0
ENDCHAR
STARTCHAR OE
ENCODING 338
SWIDTH 1092 0
DWIDTH 15 0
BBX 15 11 0 0
BITMAP
00555550
07FFFFFC
1FFFFFF8
3F47E550
7D03E540
BC03FFD0
BC03FFD0
7D03D000
3F97E554
1FFFFFFC
02FFFFF8
ENDCHAR
STARTCHAR oe
ENCODING 339
SWIDTH 944 0
DWIDTH 13 0
BBX 13 8 0 0
BITMAP
01505400
1FFBFF00
7FFFEF80
BD2F9B80
BC1FFF40
7E7F8500
3FFFFF40
0BF6FE40
ENDCHAR
STARTCHAR Scaron
ENCODING 352
SWIDTH 583 0
DWIDTH 8 0
BBX 8 14 0 0
BITMAP
0924
2FF8
0BE4
0150
1FF8
7FFC
7C24
7E40
2FF8
06FE
103E
BD7E
7FFD
1FF4
ENDCHAR
STARTCHAR scaron
ENCODING 353
SWIDTH 489 0
DWIDTH 7 0
BBX 7 11 0 0
BITMAP
25A0
7FF0
1A40
0540
3FF0
7DA0
7E90
2FF4
15F4
BFF4
6FE0
ENDCHAR
STARTCHAR Ydieresis
ENCODING 376
SWIDTH 686 0
DWIDTH 10 0
BBX 10 14 0 0
BITMAP
0A1900
1F2F00
0A1E00
100140
B807D0
BD0BC0
3F1F40
1FBE00
0BFC00
02F400
01F000
01F000
01F000
01F000
ENDCHAR
STARTCHAR Zcaron
ENCODING 381
SWIDTH 643 0
DWIDTH 9 0
BBX 9 14 0 0
BITMAP
091400
1FFD00
06E400
155500
BFFF40
BFFF40
00BE00
00FC00
02F400
0BD000
1F8000
3F5500
BFFF80
7FFF40
ENDCHAR
STARTCHAR zcaron
ENCODING 382
SWIDTH 586 0
DWIDTH 8 0
BBX 8 11 0 0
BITMAP
1968
1FFC
0690
1554
7FFE
7FFD
02F4
0BD0
2F95
BFFE
7FFE
ENDCHAR
STARTCHAR florin
ENCODING 402
SWIDTH 529 0
DWIDTH 7 0
BBX 7 14 0 -3
BITMAP
0014
01FC
03FC
03D0
2FFC
3FFC
1BD4
0B80
0B80
0B80
0F40
1F40
BF00
FD00
ENDCHAR
STARTCHAR circumflex
ENCODING 710
SWIDTH 603 0
DWIDTH 8 0
BBX 6 3 1 8
BITMAP
1A40
7FF0
25A0
ENDCHAR
STARTCHAR caron
ENCODING 711
SWIDTH 600 0
DWIDTH 8 0
BBX 6 3 1 8
BITMAP
6590
7FF0
1A40
ENDCHAR
STARTCHAR dotaccent
ENCODING 729
SWIDTH 285 0
DWIDTH 4 0
BBX 3 3 1 10
BITMAP
50
F4
F4
ENDCHAR
STARTCHAR ring
ENCODING 730
SWIDTH 378 0
DWIDTH 5 0
BBX 4 4 1 9
BITMAP
68
D9
D9
64
ENDCHAR
STARTCHAR ogonek
ENCODING 731
SWIDTH 570 0
DWIDTH 8 0
BBX 3 4 2 -3
BITMAP
14
7C
78
28
ENDCHAR
STARTCHAR tilde
ENCODING 732
SWIDTH 584 0
DWIDTH 8 0
BBX 6 3 1 8
BITMAP
2990
BFE0
5680
ENDCHAR
STARTCHAR endash
ENCODING 8211
SWIDTH 561 0
DWIDTH 8 0
BBX 8 3 0 2
BITMAP
BFFD
BFFE
1554
ENDCHAR
STARTCHAR emdash
ENCODING 8212
SWIDTH 693 0
DWIDTH 10 0
BBX 10 3 0 2
BITMAP
BFFFD0
BFFFD0
155540
ENDCHAR
STARTCHAR quoteleft
ENCODING 8216
SWIDTH 237 0
DWIDTH 3 0
BBX 3 5 0 5
BITMAP
28
70
B8
BC
64
ENDCHAR
STARTCHAR quoteright
ENCODING 8217
SWIDTH 237 0
DWIDTH 3 0
BBX 3 6 0 5
BITMAP
10
BC
BC
28
74
50
ENDCHAR
STARTCHAR quotesinglbase
ENCODING 8218
SWIDTH 237 0
DWIDTH 3 0
BBX 3 5 0 -2
BITMAP
64
BC
7C
28
B0
ENDCHAR
STARTCHAR quotedblleft
ENCODING 8220
SWIDTH 482 0
DWIDTH 7 0
BBX 7 5 0 5
BITMAP
2874
70E0
B8F4
BDF4
6460
ENDCHAR
STARTCHAR quotedblright
ENCODING 8221
SWIDTH 482 0
DWIDTH 7 0
BBX 7 6 0 5
BITMAP
1010
BCF4
BDF4
2870
74A0
5040
ENDCHAR
STARTCHAR quotedblbase
ENCODING 8222
SWIDTH 482 0
DWIDTH 7 0
BBX 7 5 0 -2
BITMAP
64A0
BDF4
7CF4
2870
B0D0
ENDCHAR
STARTCHAR dagger
ENCODING 8224
SWIDTH 527 0
DWIDTH 7 0
BBX 7 14 0 -3
BITMAP
0140
07C0
0BC0
0BC0
BFFC
BFFC
0BC0
0BC0
0BC0
0BC0
0BC0
0BC0
0BC0
0640
ENDCHAR
STARTCHAR daggerdbl
ENCODING 8225
SWIDTH 527 0
DWIDTH 7 0
BBX 7 14 0 -3
BITMAP
0140
07C0
0BC0
0BC0
BFFC
BFFC
0BC0
0BC0
6FE8
BFFC
1BD4
0BC0
0BC0
0640
ENDCHAR
STARTCHAR bullet
ENCODING 8226
SWIDTH 342 0
DWIDTH 5 0
BBX 5 5 0 2
BITMAP
1500
7F40
BF40
7F40
1900
ENDCHAR
STARTCHAR ellipsis
ENCODING 8230
SWIDTH 911 0
DWIDTH 13 0
BBX 13 3 0 0
BITMAP
64190A00
BC3E1F40
782D0F40
ENDCHAR
STARTCHAR perthousand
ENCODING 8240
SWIDTH 1223 0
DWIDTH 17 0
BBX 17 12 0 -1
BITMAP
0500C00000
2F82800000
7AC3400000
71DA000000
7FDD000000
1E68000000
0076F47E00
00A7ACEB40
01C71DD380
0287BCFB40
0702F47E00
0100000000
ENDCHAR
STARTCHAR guilsinglleft
ENCODING 8249
SWIDTH 383 0
DWIDTH 5 0
BBX 5 8 0 0
BITMAP
0100
07C0
1F80
7E00
BD00
3F40
0FC0
0380
ENDCHAR
STARTCHAR guilsinglright
ENCODING 8250
SWIDTH 383 0
DWIDTH 5 0
BBX 5 8 0 0
BITMAP
1000
B800
7E00
2F80
0FC0
3F40
BD00
7400
ENDCHAR
STARTCHAR fraction
ENCODING 8260
SWIDTH 433 0
DWIDTH 6 0
BBX 7 12 0 -1
BITMAP
000C
0028
0034
00A0
00D0
0280
0740
0A00
1C00
2800
7000
1000
ENDCHAR
STARTCHAR Euro
ENCODING 8364
SWIDTH 612 0
DWIDTH 9 0
BBX 9 11 0 0
BITMAP
01AA00
07FF40
0FEA00
2F5400
BFFD00
2E5400
BFFD00
6F9400
0F9500
0BFF40
01FF00
ENDCHAR
STARTCHAR trademark
ENCODING 8482
SWIDTH 840 0
DWIDTH 12 0
BBX 12 6 0 3
BITMAP
BFD918
AF9F7D
0E1FFD
0E1FFD
0E1D6D
090918
ENDCHAR
STARTCHAR minus
ENCODING 8722
SWIDTH 581 0
DWIDTH 8 0
BBX 8 3 0 2
BITMAP
7FFE
BFFE
1554
ENDCHAR
STARTCHAR f_f
ENCODING 64256
SWIDTH 803 0
DWIDTH 11 0
BBX 11 11 0 0
BITMAP
06D1B4
0FE3F8
1F97E4
2F5BD4
BFFFFC
BFFFFC
2F0BC0
2F0BC0
2F0BC0
1F0BC0
1E0780
ENDCHAR
STARTCHAR fi
ENCODING 64257
SWIDTH 709 0
DWIDTH 10 0
BBX 10 11 0 0
BITMAP
029280
0FE3D0
1F9180
2F5140
BFF3D0
BFF3D0
2F03D0
2F03D0
2F03D0
1F03D0
1E03D0
ENDCHAR
STARTCHAR fl
ENCODING 64258
SWIDTH 774 0
DWIDTH 11 0
BBX 11 11 0 0
BITMAP
029280
0FE7D0
1F97D0
2F57D0
BFF7D0
BFF7D0
2F07D0
2F07D0
2F03E0
1F03F8
1E01F4
ENDCHAR
STARTCHAR f_f_i
ENCODING 64259
SWIDTH 1059 0
DWIDTH 15 0
BBX 15 11 0 0
BITMAP
06D1B4A0
0FE3F8F4
1F97E4A0
2F5BD450
BFFFFCF4
BFFFFDF4
2F0BC1F4
2F0BC1F4
2F0BC1F4
1F0BC1F4
1E0780F0
ENDCHAR
STARTCHAR .notdef
ENCODING -1
SWIDTH 500 0
DWIDTH 7 0
BBX 1 1 0 0
BITMAP
00
ENDCHAR
STARTCHAR .null
ENCODING -1
SWIDTH 0 0
DWIDTH 0 0
BBX 1 1 0 0
BITMAP
00
ENDCHAR
STARTCHAR nonmarkingreturn
ENCODING -1
SWIDTH 333 0
DWIDTH 5 0
BBX 1 1 0 0
BITMAP
00
ENDCHAR
STARTCHAR f_t
ENCODING -1
SWIDTH 814 0
DWIDTH 11 0
BBX 11 11 0 0
BITMAP
06D000
0FE780
1F97C0
2F5BD4
BFFFFC
BFFFFC
2F07C0
2F07C0
2F07D0
1F03F8
1E01B8
ENDCHAR
STARTCHAR t_t
ENCODING -1
SWIDTH 794 0
DWIDTH 11 0
BBX 11 10 0 0
BITMAP
1E0740
1F0B80
2F5BD4
BFFFFC
BFFFF8
2F0B80
2F0B80
1F4BD0
1FE7F4
07D2F4
ENDCHAR
STARTCHAR l_l
ENCODING -1
SWIDTH 626 0
DWIDTH 9 0
BBX 9 11 0 0
BITMAP
686400
7CB800
7CB800
7CB800
7CB800
7CB800
7CB800
7CB800
7DBD00
7F7F80
2E1F40
ENDCHAR
STARTCHAR j_j
ENCODING -1
SWIDTH 521 0
DWIDTH 7 0
BBX 9 15 -2 -4
BITMAP
068640
07CB80
024640
014100
07CB80
07CB80
07CB80
07CB80
07CB80
07CB80
07CB80
1BCB80
BF7F40
BD3E00
100400
ENDCHAR
ENDFONT
